<?xml version="1.0" standalone="no"?>
<!DOCTYPE svg PUBLIC "-//W3C//DTD SVG 20010904//EN"
 "http://www.w3.org/TR/2001/REC-SVG-20010904/DTD/svg10.dtd">
<svg version="1.0" xmlns="http://www.w3.org/2000/svg"
 width="720.000000pt" height="720.000000pt" viewBox="0 0 720.000000 720.000000"
 preserveAspectRatio="xMidYMid meet">
<metadata>
Created by potrace 1.14, written by Peter Selinger 2001-2017
</metadata>
<g transform="translate(0.000000,720.000000) scale(0.100000,-0.100000)"
fill="#000000" stroke="none">
<path d="M1430 4954 c-509 -382 -929 -699 -935 -705 -6 -6 783 -8 2200 -6
l2210 2 107 27 c147 37 235 70 357 134 385 203 660 583 731 1009 6 33 13 99
17 148 l6 87 -1884 -1 -1884 0 -925 -695z"/>
<path d="M2597 3063 c390 -390 1024 -1024 1411 -1411 l702 -702 0 1410 0 1410
-1410 0 -1410 0 707 -707z"/>
</g>
</svg>
